<?xml version="1.0" encoding="UTF-8" standalone="no"?>
<!-- Svg Vector Icons : http://www.onlinewebfonts.com/icon -->

<svg
   xmlns:dc="http://purl.org/dc/elements/1.1/"
   xmlns:cc="http://creativecommons.org/ns#"
   xmlns:rdf="http://www.w3.org/1999/02/22-rdf-syntax-ns#"
   xmlns:svg="http://www.w3.org/2000/svg"
   xmlns="http://www.w3.org/2000/svg"
   xmlns:sodipodi="http://sodipodi.sourceforge.net/DTD/sodipodi-0.dtd"
   xmlns:inkscape="http://www.inkscape.org/namespaces/inkscape"
   version="1.1"
   x="0px"
   y="0px"
   viewBox="0 0 1000 1000"
   enable-background="new 0 0 1000 1000"
   xml:space="preserve"
   id="svg10"
   sodipodi:docname="hamburgerMenuExit.svg"
   inkscape:version="0.92.3 (2405546, 2018-03-11)"><defs
   id="defs14" /><sodipodi:namedview
   pagecolor="#ffffff"
   bordercolor="#666666"
   borderopacity="1"
   objecttolerance="10"
   gridtolerance="10"
   guidetolerance="10"
   inkscape:pageopacity="0"
   inkscape:pageshadow="2"
   inkscape:window-width="1920"
   inkscape:window-height="1017"
   id="namedview12"
   showgrid="false"
   inkscape:zoom="0.472"
   inkscape:cx="600.95782"
   inkscape:cy="742.9808"
   inkscape:window-x="1912"
   inkscape:window-y="-8"
   inkscape:window-maximized="1"
   inkscape:current-layer="svg10" />
<metadata
   id="metadata2"> Svg Vector Icons : http://www.onlinewebfonts.com/icon <rdf:RDF><cc:Work
     rdf:about=""><dc:format>image/svg+xml</dc:format><dc:type
       rdf:resource="http://purl.org/dc/dcmitype/StillImage" /><dc:title></dc:title></cc:Work></rdf:RDF></metadata>

<path
   style="fill:#000000;fill-opacity:1;stroke:none;stroke-width:0.58677161;stroke-opacity:1"
   d="m 168.4414,144.6046 c -5.01511,-0.0143 -9.51038,1.73626 -12.67969,5.37695 -7.80137,8.96168 -4.53216,25.88583 7.33008,37.94726 L 469.76171,499.74913 155.57617,808.74522 c -12.06144,11.86225 -14.55739,27.69277 -5.59571,35.49414 8.96169,7.80137 25.88778,4.53217 37.94922,-7.33008 L 499.74804,530.23936 808.74609,844.42491 c 11.86224,12.06144 27.69277,14.55543 35.49414,5.59375 7.80135,-8.96169 4.53215,-25.88583 -7.33008,-37.94727 L 530.24023,500.25108 844.42382,191.25499 c 12.06146,-11.86225 14.55736,-27.69277 5.59576,-35.49414 -8.96174,-7.80137 -25.88588,-4.53217 -37.94732,7.33007 L 500.25195,469.76085 191.25585,155.5753 c -7.0432,-7.16148 -15.48467,-10.94984 -22.81445,-10.9707 z"
   id="rect839"
   inkscape:connector-curvature="0" /></svg>